<?xml version="1.0" encoding="utf-8"?>
<!-- Generator: Adobe Illustrator 16.0.0, SVG Export Plug-In . SVG Version: 6.00 Build 0)  -->
<!DOCTYPE svg PUBLIC "-//W3C//DTD SVG 1.1//EN" "http://www.w3.org/Graphics/SVG/1.1/DTD/svg11.dtd">
<svg version="1.1" id="レイヤー_1" xmlns="http://www.w3.org/2000/svg" xmlns:xlink="http://www.w3.org/1999/xlink" x="0px"
	 y="0px" width="462.04px" height="397.129px" viewBox="0 0 462.04 397.129" enable-background="new 0 0 462.04 397.129"
	 xml:space="preserve">
<path fill="#BF4D00" d="M70.909,118.475c-0.518-0.518,0.344-1.035-0.862-2.586c-1.207-1.551-4.825-6.549-4.825-7.238
	s-5.86-8.1-6.378-8.961c-0.33-0.551-1.854-3.068-2.958-4.951c6.029-1.566,12.16-3.143,12.869-3.26
	c1.437-0.24,1.437-0.24,1.197-1.676c-0.239-1.438-4.071-15.088-4.55-16.047c-0.174-0.346-3.452,0.342-7.565,1.361
	c-0.749-1.734-1.644-2.924-2.568-3.654c0.029-0.25,0.142-0.502,0.234-0.566c0.116-0.082,0.487-0.314,0.157-0.875
	s-0.536-0.631-0.599-0.924c-0.062-0.293-0.26-1.398-0.659-1.656c-0.398-0.26-0.234-0.658-0.165-0.961
	c0.013-0.061,0.015-0.133,0.015-0.205c0.784-0.541,1.339-0.963,1.339-0.963s-1.616-5.568-1.976-7.903s-1.616-14.01-1.796-15.268
	c-0.155-1.083-0.576-2.035-0.92-5.724c0.104-1.883,0.138-3.42,0.022-3.976c-0.359-1.718-5.247-10.202-5.749-10.417
	c-0.338-0.145-0.569-0.44-0.73-0.793c-1.354,0.646-5.902,3.039-10.023,7.74c-0.993,2.328-2.926,6.844-3.016,7.586
	c-0.119,0.98-0.839,7.361-0.6,9.938c0.104,1.123,0.025,3.326-0.086,5.524l-0.347,2.358c0,0-0.501,0.744-0.145,1.763
	c0.355,1.019-5.574,7.464-5.574,7.464l1.003,1.08c-1.075,0.959-3.493,1.605-4.46,3.133c-1.032,1.629-2.057,2.826-2.501,3.252
	c-0.444,0.424,0.34,0.986,1.608,0.369c0,0-0.485,1.182-0.161,1.637c0.324,0.459,1.014,0.617,1.911-0.658
	c0,0,0.981,0.943,1.719-0.082c0,0,1.069,0.389,1.809-0.637c0,0,0.735,0.361,1.211-0.389c0.478-0.754,0.504-3.426,0.854-4.254
	c0.018-0.039,0.048-0.092,0.083-0.146l1.528,1.643c-0.003,0.01-0.005,0.02-0.008,0.029c-0.6,2.086-1.438,3.682-0.719,4.172
	s0.719,0.49,0.719,0.49l-0.359,1.229c0,0,0.124,0.018,0.343,0.051c-1.137,4.244-3.064,11.447-3.306,12.412
	c-0.344,1.379-1.206,2.586-1.034,3.447c0.173,0.861-1.723,4.652-1.551,5.17c0.173,0.518-1.378,2.758-1.552,3.791
	c-0.171,1.035-4.48,11.547-5.343,13.615c-0.86,2.068-2.584,5.17-2.584,5.17s-2.758,2.068-2.758,2.586s-2.24,2.068-5.343,1.379
	s-4.309-1.723-4.825-1.207c-0.518,0.518-1.724,1.896-0.173,3.275s7.066,3.963,8.79,4.137c1.723,0.172,5.342,3.791,6.893,2.584
	c1.552-1.205,1.552-3.273,1.552-3.273s2.241,0.172,2.758-0.344c0.517-0.518,1.551-4.311,1.896-6.379
	c0.345-2.066,2.758-6.203,3.274-7.756c0.517-1.551,2.413-6.893,3.104-7.754c0.688-0.861,5.169-9.48,5.687-10.514
	s4.31-11.893,4.31-11.893s0.893,1.787,1.973,3.947c1.17,4.902,2.611,11.027,2.611,11.027s0.918-0.242,2.401-0.631
	c0.532,1.164,1.122,2.297,1.631,2.719c1.034,0.861,2.413,1.551,2.931,2.586c0.516,1.033,6.549,8.789,7.238,10.34
	s1.551,3.447,2.758,4.311c0,0,0.345,2.756-0.518,3.445s0.173,1.035,0.688,1.379c0.518,0.344-0.688,3.619-3.618,4.137
	c-2.931,0.518-4.137,2.068-2.758,2.758c1.378,0.689,6.032,1.723,7.583,0.172s4.998-4.48,5.516-4.48c0.517,0,1.034,1.205,1.034,1.205
	s2.929-1.033,3.446-1.551C72.46,123.819,71.425,118.993,70.909,118.475z M49.485,74.598c-0.013-0.426-0.033-0.857-0.066-1.281
	c0.119-0.039,0.236-0.076,0.349-0.113C49.641,73.641,49.55,74.114,49.485,74.598z M50.307,77.083
	c0.008-1.033,0.179-2.189,0.615-3.174c0.173,0.293,0.504,0.379,0.902,0.277c0.417-0.107,0.548-0.213,0.71-0.17
	c0.161,0.041,0.938-0.086,1.164-0.729c0.477-0.004,0.939,0.012,1.037-0.334c0.099-0.346,0.006-0.689,0.095-0.727
	c0.002-0.002,0.007-0.004,0.01-0.006c0.808,0.676,1.451,1.93,1.998,3.146C54.729,75.901,52.459,76.5,50.307,77.083z M31.479,15.293
	l0.283,1.264c0,0-0.121,0.492,0.119,0.859c0.24,0.368,0.359,0.613,0.24,0.982c-0.12,0.367-0.24,1.963,0.599,2.332
	c0.837,0.367,2.514,0.121,2.634,0.857s0.12,1.963,0.12,1.963s-0.194,1.99-0.345,3.19l1.85-3.823l7.11-3.555
	c-0.006-0.284,0.007-0.475,0.007-0.475S46.73,14.104,46.73,13c0-1.104,0.958-5.153-0.599-7.116c0,0-1.797-3.313-6.347-3.436
	c-4.551-0.122-5.867,3.085-8.142,4.189L32.48,6.76l-0.658,0.49l0.778,0.123c0,0-0.719,2.454-0.599,3.436
	c0.12,0.982-0.762,3.012-1.241,3.258C30.282,14.312,30.521,14.68,31.479,15.293z"/>
<path fill="#BF4D00" d="M461.447,36.348c-0.131-1.117-0.066-2.496-0.264-3.219s-0.459-5.189-0.459-5.584s-1.051-3.35-1.707-4.139
	c-0.658-0.787-0.92-1.445-1.842-1.379c-0.918,0.066-3.545-1.051-3.809-1.314c-0.264-0.262-0.459-1.379-0.789-2.299
	c-0.328-0.92-0.656-6.371-0.59-9.393c0.064-3.021,0-7.029-2.104-8.211c-2.102-1.184-3.283-0.723-3.283-0.723
	c-2.627-0.133-7.227,1.051-7.227,8.014c0,0-0.393,2.102,0,3.283c0,0-0.131,2.891,0.264,4.074c0.395,1.182,0.262,1.707-0.131,2.299
	c0,0-0.492,0.789,0,1.117c0.316,0.211,0.381,0.333,0.234,0.58c0.732-0.357,1.754-0.986,1.848-0.613
	c0.113,0.451,0.451,2.596,0.451,2.596c0.564,1.918,1.918,5.754,1.918,5.754c1.129-2.256,5.189-5.98,5.189-5.98
	c0.338-2.143,0-2.932,0-2.932l1.918-0.678c0,0-0.564,0.227,0.113,1.58c0.676,1.354,2.256,4.512,2.256,4.512h-3.158
	c-3.611,2.031-6.656,6.432-6.656,6.432c-1.129-4.062-3.836-6.092-3.836-6.092l-3.273-0.451c0.863-0.617,1.18-1.396,1.297-1.98
	c-0.652,0.51-1.346,0.884-2.045,1.213c-1.117,0.527-3.088,0.264-3.416,0.855c-0.33,0.59-1.578,5.846-1.775,7.357
	c-0.197,1.51-1.379,7.75-1.641,8.67c-0.264,0.92-0.264,2.76-0.197,3.35c0.064,0.592,0.197,5.256,0.459,6.504
	c0.264,1.248,1.971,6.568,2.037,7.422c0.057,0.756,0.373,2.693,0.945,3.629c-0.154,0.973-0.377,2.152-0.377,2.152l0.684,0.262
	c0.137,3.848,0.455,11.875,0.85,14.584c0.525,3.613,0.854,9.395,0.854,9.395s4.402,1.115,5.848,0.854c0,0,0.197,1.707,0.197,2.365
	c0,0.656,0.262,2.299,0.523,3.086c0.264,0.789,0.986,7.293,2.365,12.023c1.381,4.729,2.76,8.078,2.693,8.934
	c-0.064,0.854-0.854,3.48-1.182,4.926s-0.461,2.102-0.592,2.299s-2.76,2.232-3.48,2.562c-0.723,0.328-2.234,1.248-2.957,1.115
	c-0.723-0.131-1.773,1.248-0.131,1.971s4.73,0.328,4.992,0.264c0,0-0.461,3.021,0.064,3.416c0.527,0.395,3.285,0.525,4.469-0.197
	c1.182-0.723,2.627-2.168,2.627-2.562s0.131-2.955,0.459-3.021c0.33-0.064,0.658,0.131,0.855,0.197
	c0.195,0.066,2.232-0.066,2.232-0.461c0-0.393,0.264-4.598-0.592-5.779c-0.854-1.182-0.854-1.182-0.854-1.182
	s-0.395-1.117-0.592-1.578c-0.195-0.459-0.525-3.285-0.525-3.285s3.416-11.758,3.35-14.779c-0.064-3.021-0.393-5.518-0.59-6.766
	s-0.131-2.232-0.131-2.496c0-0.262,0.197-1.576,0.197-1.576s2.166-0.131,4.072-0.92c0,0,0.395-14.977,0.395-16.816
	s-0.789-7.619-0.789-7.619l1.248-0.592c0,0-0.525-1.773-1.184-3.35c-0.656-1.578-1.182-5.387-1.182-5.387s2.891-1.576,3.547-2.168
	c0.658-0.592,2.562-2.299,2.498-3.416C461.973,45.938,461.578,37.465,461.447,36.348z M434.777,47.975
	c-0.131,0.656-0.525,1.838-0.592,1.576c-0.066-0.264-0.395-1.773-0.395-2.232c0-0.461,0-1.053-0.131-1.248
	c-0.131-0.197,0.395-1.314,0.592-2.168c0.197-0.855,0.459,0.328,0.459,0.721C434.711,44.624,434.908,47.319,434.777,47.975z
	 M453.564,47.514c0,0-1.512-2.561-1.643-3.086s0.066-0.592-0.066-1.117c-0.131-0.525,1.84-3.68,1.906-4.205
	c0.064-0.525,0.525-0.854,0.525-0.854s0.723,1.971,0.723,2.496s0.459,2.432,0.459,2.432s-0.459,0.92,0.197,1.312L453.564,47.514z"/>
<g>
	<path fill="#BF4D00" d="M45.123,391.661c-0.895-1.219-2.683-3.576-2.764-4.551c-0.082-0.977,0.081-2.684-0.406-3.74
		c-0.488-1.057-0.732-3.008-0.732-3.008s-0.894-9.916-1.95-13.494c-1.058-3.576-2.602-7.803-2.765-8.535
		c-0.162-0.73-0.812-4.307-0.812-4.307s-0.487-15.445-0.975-18.371c-0.488-2.928-0.813-3.822-1.139-4.064
		c-0.325-0.244-0.895-1.627-0.65-2.277s0.812-0.65,0.812-0.65s-2.682-8.453-2.275-9.104s5.039-4.389,5.771-5.121
		c0.731-0.732,2.113-4.064,1.788-5.854c-0.325-1.787-1.3-8.777-1.382-9.672c-0.081-0.895-1.057-6.748-1.139-7.805
		c-0.08-1.057-0.486-1.463-0.975-1.707s-4.959-2.031-5.365-2.357c-0.406-0.324-0.895-0.65-0.895-0.65s-1.869-2.275-2.194-2.6
		c-0.12-0.121-0.187-0.188-0.234-0.234c-0.72,3.041-3.497,7.859-5.13,11.125c-1.789,3.578-3.334,8.293-3.984,10.406
		c-0.894-1.301-0.812-3.902-1.057-6.342c-0.186-1.865,0.389-10.15,0.669-13.941c-0.541,0.572-1.163,1.025-1.4,1.262
		c-0.325,0.324-3.983,1.463-4.958,1.545c-0.976,0.08-1.545-0.244-2.276,0.893c-0.731,1.139-2.194,7.236-2.683,9.756
		s-1.057,7.234-1.544,8.291c-0.488,1.057-1.788,2.275-1.22,3.008c0.568,0.73,1.057,1.137,1.057,2.195
		c0,1.057-0.081,1.707,0.163,2.438c0.243,0.732,3.007,6.584,3.251,7.641s0.732,1.627,0.732,1.627l-0.488,3.332l0.976,0.326
		c0,0-0.895,5.771,0.406,9.592c1.3,3.82,1.788,12.273,1.788,13.98s0,2.357,0,2.357l2.276,0.568c0,0,0.731,1.627,0.894,2.439
		c0.163,0.812,0.488,4.227,0.488,6.504c0,2.275,1.545,13.168,2.357,16.014c0.812,2.844,0.895,7.641,0.488,8.535
		c-0.407,0.895-0.977,2.275-2.195,3.008c-1.219,0.73-2.846,1.949-3.496,1.787c-0.649-0.162-1.138,0.812,0.163,1.221
		c1.301,0.406,4.958,1.137,6.259,0.162c1.301-0.977,1.87-2.439,2.521-2.764c0.65-0.326,0.894-0.488,0.976,0
		c0.081,0.486,0.081,2.275,0.081,2.275l1.301,0.082c0,0,0.243-2.277,0.406-2.602c0.163-0.326,1.544-2.195,0.731-3.74
		c-0.812-1.543-1.219-1.463-1.626-2.357c-0.406-0.893-0.812-9.916-0.243-12.518c0.568-2.602-0.732-9.51-0.895-10.404
		s0.406-7.234,0.406-7.234s4.715,0.162,4.877,0c0.163-0.164,1.627,4.551,2.439,6.096s1.625,6.096,2.275,7.641
		s6.098,12.438,6.016,13.982c-0.081,1.545,0.325,3.008,0.082,3.576c-0.244,0.568-0.163,1.951,0.08,3.008
		c0.244,1.057,1.301,2.764,1.626,3.414s1.138,3.658,2.194,4.633c1.058,0.977,3.09,0.977,4.146,0.162
		C46.83,395.725,46.018,392.881,45.123,391.661z M11.145,310.78c0.325,1.139-0.488,4.553-0.812,3.576
		c-0.325-0.975-1.626-3.088-1.139-3.576c0.488-0.488,0.977-0.975,0.488-1.951c-0.488-0.975,0.162-4.551,1.138-4.389
		c0,0,0.65,3.9,0.65,4.715C11.47,309.967,10.819,309.641,11.145,310.78z M29.678,313.219c-0.487-0.164-0.975-2.764-0.975-4.064
		s2.438-4.715,2.926-5.041c0,0,1.463,3.902,0.976,4.715s-0.813-0.488-0.487,0.812c0.325,1.301,0.325,1.301,0.325,1.301
		S30.166,313.381,29.678,313.219z"/>
	<path fill="#BF4D00" d="M20.33,290.622c0,0.242,1.545-1.871,1.789-2.521c0.243-0.65,0.324-1.381,0.324-1.381
		c0.309-0.309,2.535-3.237,3.591-4.632c-0.206-0.194-0.095-0.651-0.095-0.651l0.081-1.789c0,0,0.976-1.057,0.894-2.357
		c0.813,0.488,1.627-1.383,1.545-2.846c-0.081-1.463-0.244-0.975-0.244-0.975s0.082-9.998-9.022-7.316
		c-0.39,0.115-4.796,2.195-3.414,7.723c0,0-0.65,1.625,0.813,3.17c0,0,0.486,1.869,1.381,2.926s0.488,1.139,0.65,1.627
		c0.162,0.486,0,2.031,0,2.031s-0.014-0.028-0.041-0.054c0.333,1.617,0.828,3.777,1.26,4.28
		C20.33,288.426,20.33,290.377,20.33,290.622z"/>
</g>
<path fill="#BF4D00" d="M432.091,256.354c0.024-0.059,0.042-0.098,0.056-0.133C432.12,256.284,432.091,256.354,432.091,256.354z
	 M422.455,357.18c-0.084,5.402-0.08,13.17,0.264,15.109c0.461,2.619,3.389,17.254,4.004,17.561v0.926c0,0-0.461,3.543-0.461,4.006
	c0,0.461,0.924,0.309,1.695,1.232c0.771,0.924,5.545,1.23,8.627,1.078c3.082-0.154,0.77-1.695,1.693-2.465
	c0.375-0.312,2.158,0.463,4.623,0.77c2.465,0.309,7.24,0.309,8.473-0.615s0.617-1.387,0.154-1.695s-2.773,0-4.314-0.617
	c-1.539-0.615-4.159-4.004-4.159-4.004l1.386-0.463c0,0,3.391-23.262,3.698-25.111c0.309-1.848,0-18.023,0-19.719
	s-0.617-3.389-0.771-4.467c-0.154-1.078-0.617-6.934-0.617-6.934c1.078,0.309,2.004-0.77,1.541-2.002
	c-0.461-1.232-1.387-11.708-1.387-11.708l0.771-0.154c0,0-1.233-2.618-1.233-3.39c0-0.77-0.462-14.943-0.308-15.867
	c0.153-0.924,1.078,0.154,1.541,0c0.462-0.154,6.161,2.311,6.932,3.081s1.694,0.771,2.773,0.154
	c1.078-0.616,2.619-0.616,2.619-2.927c0-2.312-1.541-6.625-2.156-7.549c-0.616-0.926-0.926-2.004-1.542-3.543
	c-0.616-1.541-0.77-3.391-0.77-3.391s-0.925,0.309-1.695-0.462c-1.077-1.54-1.54-0.615-1.54-0.615s-2.002-1.233-2.156-2.62
	s-1.387-4.004-2.003-5.084c-0.617-1.078-1.85-0.308-2.466-0.77c-0.77-0.771-1.387-1.078-1.387-1.078s0-1.078-0.77-0.925
	c-0.176,0.036-0.286,0.294-0.364,0.661l-2.56-2.457c-0.172-1.025-0.402-1.91-0.311-2.363c0.053-0.271-0.064-0.809-0.24-1.391
	c0.385-1.06-0.393-3.717-0.686-4.155c-0.309-0.462-0.462-1.464-1.617-2.08c-1.156-0.616-1.849-0.462-1.849-0.462l0.231-0.693
	c0,0-0.615,0-1.232,0.154c-0.615,0.154-0.924-0.462-1.617-0.385c-0.693,0.076-1.233,0-1.002-0.539c0,0,0,0-2.311,0.924
	s-3.389,4.006-3.389,4.006c-2.928,3.234-0.154,9.242,0.77,10.938c0.605,1.109,1.604,2.676,2.223,3.629
	c1.936,1.505,5.967,4.742,6.367,4.786c0.52,0.058-0.636,0.29-0.521,1.098c0.115,0.81,0.463,1.675,0.463,1.675l0.115,7.914
	c0,0-4.721-10.946-7.864-14.039l-0.628,1.1c0,0-5.084,2.928-7.395,4.16c-0.131,0.068-0.236,0.189-0.322,0.344
	c-0.113,0.02-0.178,0.041-0.178,0.041s-2.08,8.088-1.85,9.705c0.232,1.617-0.923,5.083-0.923,6.471c0,1.387-0.925,4.852-1.156,5.545
	s-1.618,1.617-1.155,3.004s2.312,12.94,2.08,13.634c-0.23,0.693,0.693,2.311,0.693,2.311s-0.231,1.388,0.461,2.542
	c0,0-2.079,3.697-2.541,5.777h-5.314l-1.85,21.26C408.045,356.036,416.447,356.827,422.455,357.18z M439.973,283.842
	c-0.645-0.043-1.122-0.166-1.479-0.352c-0.232,1.383-0.544,4.627-0.544,4.627l-0.577-2.369c0,0-0.116-1.444-0.116-1.676
	c0-0.23-0.692-0.404-0.692-0.404c0.577-0.346,0.981-1.56,0.981-1.56c-0.153-0.924-0.192-2.562-0.192-2.562s0-1.078,1.85-1.232
	c1.3-0.107,1.456-1.589,1.488-3.102c0.593,0.511,1.374,1.192,1.992,1.75c-0.095,0.264-0.221,0.429-0.4,0.429
	c-0.924,0,1.541,2.618,2.619,3.696s3.543,3.544,3.235,4.467l0.616,0.771c0,0,2.002,4.006,2.156,4.621
	c0.154,0.616-2.619-0.463-2.619-0.924c0-0.462-0.615-1.078-1.23-1.387c-0.618-0.309-1.389-2.156-2.312-3.39
	C443.824,284.015,441.061,283.915,439.973,283.842z M431.192,365.125c0-1.617,2.079-13.172,2.079-14.559s1.849-6.238,1.849-6.238
	c0,2.773,3.234,9.012,3.234,9.012s0.463,1.617,0,2.541c-0.462,0.926,0.692,1.85,0.232,2.773c-0.463,0.924-0.463,1.617-0.694,2.773
	c-0.231,1.154-3.928,22.877-3.928,23.57S431.192,366.743,431.192,365.125z M418.213,330.211l-0.404,4.508c0,0-1.393,0.08-1.387,0
	C416.596,332.639,418.213,330.211,418.213,330.211z M421.969,328.827c0.006-0.002,0.012-0.004,0.018-0.004
	c-0.258,2.158-0.501,4.182-0.501,4.182c-0.093,0.236-0.13,0.773-0.124,1.523l-2.686,0.076c-0.059-0.348,0.23-5.143,0.403-5.086
	c0.174,0.059,0.404-0.287,0.578-0.172s0.52-0.348,1.098-0.174C421.332,329.346,421.275,328.883,421.969,328.827z M422.614,323.458
	c-0.408-0.535-0.704-0.93-0.704-0.93l-0.23-4.39c0,0-0.695-4.622-0.463-5.777c0.23-1.155,1.184-1.499,0.809-3.003
	c-0.463-1.849,0.115-3.467,0.115-3.467s0.3-1.996,0.702-3.627c0.262,0.803,0.869,2.707,1.108,3.781
	C424.237,307.338,422.917,320.568,422.614,323.458z"/>
</svg>
