<?xml version="1.0" encoding="iso-8859-1"?>
<!-- Generator: Adobe Illustrator 16.0.0, SVG Export Plug-In . SVG Version: 6.00 Build 0)  -->
<!DOCTYPE svg PUBLIC "-//W3C//DTD SVG 1.1//EN" "http://www.w3.org/Graphics/SVG/1.1/DTD/svg11.dtd">
<svg version="1.1" id="&#x30EC;&#x30A4;&#x30E4;&#x30FC;_1"
	 xmlns="http://www.w3.org/2000/svg" xmlns:xlink="http://www.w3.org/1999/xlink" x="0px" y="0px" width="200px" height="200px"
	 viewBox="0 0 200 200" style="enable-background:new 0 0 200 200;" xml:space="preserve">
<circle style="fill:#F78207;" cx="100" cy="100" r="100"/>
<path d="M106.05,101.025c5.027-4.353,7.916-10.674,7.916-17.324c0-12.86-10.424-23.285-23.284-23.285S67.398,70.841,67.398,83.701
	c0,6.65,2.889,12.971,7.917,17.324C62,107.054,53.441,120.311,53.427,134.927c0,2.571,2.085,4.657,4.657,4.657
	c2.572,0,4.657-2.086,4.657-4.657c0-15.432,12.51-27.941,27.941-27.941c15.431,0,27.941,12.51,27.941,27.941
	c0,2.571,2.086,4.657,4.657,4.657s4.657-2.086,4.657-4.657C127.923,120.311,119.363,107.054,106.05,101.025z M90.682,97.672
	c-7.715,0-13.971-6.255-13.971-13.971c0-7.716,6.255-13.971,13.971-13.971c7.716,0,13.97,6.255,13.97,13.971
	C104.652,91.417,98.398,97.672,90.682,97.672z M145.213,86.635c-1.811-1.827-4.759-1.838-6.585-0.027
	c-0.009,0.009-0.019,0.019-0.026,0.027l-9.314,9.313l-2.887-2.934c-1.812-1.826-4.761-1.838-6.586-0.027
	c-0.009,0.008-0.018,0.017-0.028,0.027c-1.804,1.816-1.804,4.749,0,6.566l6.241,6.24c1.816,1.805,4.75,1.805,6.567,0l12.434-12.434
	c1.913-1.719,2.07-4.663,0.353-6.576C145.326,86.751,145.271,86.692,145.213,86.635z"/>
</svg>
