<?xml version="1.0" encoding="utf-8"?>
<!-- Generator: Adobe Illustrator 16.0.0, SVG Export Plug-In . SVG Version: 6.00 Build 0)  -->
<!DOCTYPE svg PUBLIC "-//W3C//DTD SVG 1.1//EN" "http://www.w3.org/Graphics/SVG/1.1/DTD/svg11.dtd">
<svg version="1.1" id="レイヤー_1" xmlns="http://www.w3.org/2000/svg" xmlns:xlink="http://www.w3.org/1999/xlink" x="0px"
	 y="0px" width="200px" height="200px" viewBox="0 0 200 200" enable-background="new 0 0 200 200" xml:space="preserve">
<circle fill="#F78207" cx="100" cy="100" r="100"/>
<path d="M136.834,88.15l-61.84-30.92c-6.552-3.262-14.508-0.594-17.769,5.958c-1.757,3.531-1.851,7.662-0.254,11.268l10.602,23.721
	l0,0c0.485,1.159,0.485,2.463,0,3.621L56.971,125.52c-2.976,6.687,0.031,14.52,6.718,17.496c1.695,0.754,3.53,1.145,5.386,1.146
	c2.068-0.021,4.106-0.504,5.963-1.414l61.84-30.921c6.539-3.288,9.172-11.255,5.884-17.792c-1.279-2.542-3.342-4.604-5.884-5.883
	H136.834z M132.903,103.919l-61.841,30.922c-2.199,1.056-4.838,0.129-5.894-2.07c-0.555-1.156-0.58-2.496-0.069-3.673l10.558-23.722
	c0.137-0.315,0.254-0.641,0.353-0.97h30.434c2.439,0,4.417-1.979,4.417-4.417c0-2.439-1.978-4.417-4.417-4.417H76.009
	c-0.099-0.331-0.216-0.656-0.353-0.972l-10.558-23.72c-0.972-2.238,0.054-4.839,2.291-5.812c1.176-0.511,2.517-0.486,3.672,0.069
	l61.841,30.921c2.17,1.112,3.028,3.774,1.917,5.944C134.398,102.826,133.727,103.497,132.903,103.919z"/>
</svg>
