<?xml version="1.0" encoding="utf-8"?>
<!-- Generator: Adobe Illustrator 16.0.0, SVG Export Plug-In . SVG Version: 6.00 Build 0)  -->
<!DOCTYPE svg PUBLIC "-//W3C//DTD SVG 1.1//EN" "http://www.w3.org/Graphics/SVG/1.1/DTD/svg11.dtd">
<svg version="1.1" id="レイヤー_1" xmlns="http://www.w3.org/2000/svg" xmlns:xlink="http://www.w3.org/1999/xlink" x="0px"
	 y="0px" width="200px" height="200px" viewBox="0 0 200 200" enable-background="new 0 0 200 200" xml:space="preserve">
<circle fill="#F78207" cx="100" cy="100" r="100"/>
<path d="M130.942,82.318h-4.42V69.057c0-7.324-5.938-13.261-13.261-13.261H69.058c-7.324,0-13.262,5.937-13.262,13.261v53.044
	c0.01,1.785,1.091,3.389,2.741,4.067c0.524,0.247,1.1,0.369,1.68,0.354c1.175,0.007,2.305-0.455,3.139-1.281l12.421-12.466h6.542
	v6.366c0,7.323,5.938,13.26,13.261,13.26h30.59l10.477,10.521c0.834,0.827,1.963,1.289,3.138,1.282
	c0.58,0.015,1.155-0.106,1.68-0.354c1.65-0.677,2.731-2.281,2.741-4.066V95.579C144.204,88.255,138.267,82.318,130.942,82.318z
	 M82.318,95.579v8.354h-8.354c-1.175-0.006-2.304,0.456-3.139,1.283l-6.188,6.232V69.057c0-2.441,1.979-4.42,4.42-4.42h44.204
	c2.441,0,4.42,1.979,4.42,4.42v13.262H95.579C88.256,82.318,82.318,88.255,82.318,95.579z M135.362,129.13l-4.42-4.42
	c-0.827-0.845-1.957-1.321-3.139-1.326H95.579c-2.441,0-4.42-1.979-4.42-4.421V95.579c0-2.441,1.979-4.42,4.42-4.42h35.363
	c2.441,0,4.42,1.979,4.42,4.42V129.13z"/>
</svg>
