<?xml version="1.0" encoding="utf-8"?>
<!-- Generator: Adobe Illustrator 16.0.0, SVG Export Plug-In . SVG Version: 6.00 Build 0)  -->
<!DOCTYPE svg PUBLIC "-//W3C//DTD SVG 1.1//EN" "http://www.w3.org/Graphics/SVG/1.1/DTD/svg11.dtd">
<svg version="1.1" id="レイヤー_1" xmlns="http://www.w3.org/2000/svg" xmlns:xlink="http://www.w3.org/1999/xlink" x="0px"
	 y="0px" width="200px" height="200px" viewBox="0 0 200 200" enable-background="new 0 0 200 200" xml:space="preserve">
<circle fill="#F78207" cx="100" cy="100" r="100"/>
<path d="M100,128.156c2.222,0,4.022-1.801,4.022-4.022s-1.801-4.022-4.022-4.022s-4.022,1.801-4.022,4.022
	S97.778,128.156,100,128.156z M120.111,128.156c2.223,0,4.023-1.801,4.023-4.022s-1.801-4.022-4.023-4.022
	c-2.221,0-4.021,1.801-4.021,4.022S117.891,128.156,120.111,128.156z M120.111,112.066c2.223,0,4.023-1.801,4.023-4.022
	c0-2.221-1.801-4.021-4.023-4.021c-2.221,0-4.021,1.801-4.021,4.021C116.09,110.266,117.891,112.066,120.111,112.066z M100,112.066
	c2.222,0,4.022-1.801,4.022-4.022c0-2.221-1.801-4.021-4.022-4.021s-4.022,1.801-4.022,4.021
	C95.978,110.266,97.778,112.066,100,112.066z M128.156,63.799h-4.021v-4.022c0-2.221-1.801-4.021-4.023-4.021
	c-2.221,0-4.021,1.801-4.021,4.021v4.022H83.911v-4.022c0-2.221-1.802-4.021-4.022-4.021c-2.222,0-4.022,1.801-4.022,4.021v4.022
	h-4.022c-6.664,0-12.067,5.403-12.067,12.067v56.312c0,6.664,5.403,12.066,12.067,12.066h56.312c6.665,0,12.067-5.402,12.067-12.066
	V75.866C140.224,69.202,134.821,63.799,128.156,63.799z M132.179,132.179c0,2.222-1.801,4.022-4.022,4.022H71.844
	c-2.222,0-4.022-1.801-4.022-4.022V95.978h64.357V132.179z M132.179,87.934H67.821V75.866c0-2.222,1.801-4.022,4.022-4.022h4.022
	v4.022c0,2.222,1.801,4.022,4.022,4.022c2.221,0,4.022-1.801,4.022-4.022v-4.022h32.179v4.022c0,2.222,1.801,4.022,4.021,4.022
	c2.223,0,4.023-1.801,4.023-4.022v-4.022h4.021c2.222,0,4.022,1.801,4.022,4.022V87.934z M79.889,112.066
	c2.221,0,4.022-1.801,4.022-4.022c0-2.221-1.802-4.021-4.022-4.021c-2.222,0-4.022,1.801-4.022,4.021
	C75.866,110.266,77.667,112.066,79.889,112.066z M79.889,128.156c2.221,0,4.022-1.801,4.022-4.022s-1.802-4.022-4.022-4.022
	c-2.222,0-4.022,1.801-4.022,4.022S77.667,128.156,79.889,128.156z"/>
</svg>
