<?xml version="1.0" encoding="utf-8"?>
<!-- Generator: Adobe Illustrator 16.0.0, SVG Export Plug-In . SVG Version: 6.00 Build 0)  -->
<!DOCTYPE svg PUBLIC "-//W3C//DTD SVG 1.1//EN" "http://www.w3.org/Graphics/SVG/1.1/DTD/svg11.dtd">
<svg version="1.1" xmlns="http://www.w3.org/2000/svg" xmlns:xlink="http://www.w3.org/1999/xlink" x="0px" y="0px"
	 width="1249.661px" height="210.478px" viewBox="0 0 1249.661 210.478" enable-background="new 0 0 1249.661 210.478"
	 xml:space="preserve">
<g id="レイヤー_1">
</g>
<g id="レイヤー_2">
	<g>
		<g>
			<path fill="#F08300" d="M105.505,0C47.236,0,0,47.117,0,105.239c0,58.121,47.236,105.238,105.505,105.238
				s105.504-47.117,105.504-105.238C211.009,47.117,163.773,0,105.505,0z M105.505,198.96c-53.83,0-97.468-43.528-97.468-97.223
				c0-53.695,43.638-97.223,97.468-97.223c53.829,0,97.468,43.527,97.468,97.223C202.973,155.432,159.334,198.96,105.505,198.96z"/>
			<path fill="#FABE00" d="M125.591,86.525c-33.16,0-83.425,19.533-115.763,33.823c8.706,44.789,48.229,78.611,95.677,78.611
				c51.141,0,93.078-39.29,97.14-89.26C183.599,102.894,169.42,86.525,125.591,86.525z"/>
			<path fill="#F5A200" d="M91.406,91.606C50.491,80.516,19.136,98.89,8.164,106.743c2.612,51.368,45.194,92.217,97.341,92.217
				c53.829,0,97.468-43.528,97.468-97.223c0-2.199-0.081-4.379-0.225-6.542C141.963,125.341,140.557,104.928,91.406,91.606z"/>
			<path fill="#F08300" d="M105.505,198.96c40.75,0,75.653-24.949,90.212-60.366c-11.927-10.205-34.363-26.801-54.157-26.801
				c-28.58,0-39.037,22.117-82.256,11.315c-7.914-1.979-31.228,0.977-47.538,5.35C23.404,169.159,60.965,198.96,105.505,198.96z"/>
			<path fill="#EB6100" d="M70.438,107.685c-29.52-2.151-52.313,2.891-61.726,5.496c5.68,48.301,46.845,85.779,96.793,85.779
				c38.226,0,71.307-21.955,87.276-53.909c-35.536-2.062-58.602-21.298-58.602-21.298S109.555,110.534,70.438,107.685z"/>
			<g>
				<path fill="#FFFFFF" d="M185.812,156.936c-0.561-1.46-1.134-2.948-1.726-4.485c-11.282-29.202-18.091-46.297-20.422-51.283
					c-0.763-1.566-1.596-2.351-2.5-2.351c-1.238,0-3.105,0.084-5.604,0.25c-2.5,0.167-4.393,0.249-5.678,0.249
					c-1.333,0-3.345-0.117-6.033-0.355c-2.689-0.237-4.678-0.356-5.963-0.356c-0.761,0-1.428,0.902-1.999,2.706
					c-1,3.135-7.332,20.442-18.994,51.925c-10.759,29.108-16.138,44.279-16.138,45.514c0,0.067,0.016,0.132,0.033,0.196
					c1.562,0.074,3.135,0.115,4.717,0.115c8.729,0,17.188-1.152,25.239-3.299c0.173-0.586,0.34-1.227,0.501-1.928
					c1-4.32,1.903-6.86,2.713-7.621c0.524-0.428,4.832-0.641,12.926-0.641c3.074,0,5.773,0.011,8.11,0.033
					C167.24,178.39,177.766,168.582,185.812,156.936z M158.309,160.642c-0.334,0.76-2.071,1.14-5.213,1.14
					c-3.381,0-5.809-0.046-7.283-0.143c-2.856-0.095-4.285-0.569-4.285-1.425c0-1.281,1.286-5.627,3.856-13.034
					c2.38-6.979,4.07-11.515,5.069-13.604c0.999,1.899,2.571,6.268,4.713,13.105c2.189,7.077,3.285,11.396,3.285,12.964
					C158.451,160.072,158.403,160.405,158.309,160.642z"/>
				<path fill="#FFFFFF" d="M85.833,197.078c4.405-2.492,8.36-5.796,11.851-9.94c1.001-1.234,1.501-2.231,1.501-2.992
					c0-0.521-1.739-3.418-5.214-8.689c-3.38-5.08-5.451-8.047-6.212-8.902c-0.477-0.521-0.952-0.783-1.428-0.783
					c-0.239,0-1.405,0.902-3.499,2.707c-2.524,2.135-4.999,3.799-7.427,4.985c-3.713,1.805-7.641,2.706-11.782,2.706
					c-6.998,0-12.592-2.658-16.779-7.977c-3.857-4.891-5.785-10.945-5.785-18.163c0-7.123,1.928-13.106,5.785-17.949
					c4.188-5.224,9.781-7.835,16.779-7.835c4.046,0,7.949,0.949,11.711,2.849c2.475,1.282,4.998,3.063,7.569,5.343
					c2.142,1.898,3.331,2.849,3.57,2.849c0.571,0,1.046-0.188,1.428-0.57c0.857-0.712,2.939-3.964,6.248-9.758
					c3.308-5.793,4.963-9.14,4.963-10.043c0-0.807-0.477-1.733-1.429-2.777c-8.759-9.449-20.85-14.175-36.274-14.175
					c-14.186,0-25.873,5.271-35.06,15.812c-5.898,6.741-9.811,14.469-11.759,23.169C26.409,167.373,53.135,190.394,85.833,197.078z"
					/>
			</g>
		</g>
		<g>
			<path fill="#F08300" d="M307.612,130.484l1.174,9.137h-22.935l-1.1-9.137h-32.485v-21.393h29.743l-1.407-11.09h-28.262V76.371
				h25.443l-0.625-4.918h22.701l0.705,4.918h22.549v21.631h-19.728l1.406,11.09h18.554v21.393H307.612z"/>
			<path fill="#F08300" d="M368.177,131.503h-7.125V113.54h7.125c5.556,0,6.577-1.326,6.577-5.541v-1.562H357.84l1.101,33.812
				h-17.69l-1.256-33.812h-5.951V88.863h5.323l-0.074-4.06h17.767l0.158,4.06h35.62v14.29
				C392.837,123.847,387.438,131.503,368.177,131.503z"/>
			<path fill="#F08300" d="M404.195,112.056V72.154h23.016v39.901H404.195z M432.846,140.012h-20.116v-22.721h19.411
				c11.507,0,16.051-4.453,16.051-17.727v-27.41h23.095v27.801C471.286,131.657,457.35,140.012,432.846,140.012z"/>
			<path fill="#F08300" d="M526.785,121.038h-8.3c-1.328,11.559-9.472,18.974-24.818,18.974h-13.776v-22.098h10.258
				c5.244,0,6.104-1.403,6.104-5.7V98.938h28.497c1.565,0,3.444-1.171,3.444-3.515v-1.637h-48.304V72.935h70.927v22.958
				C550.817,111.745,542.05,121.038,526.785,121.038z"/>
			<path fill="#F08300" d="M605.278,121.038h-8.303c-1.328,11.559-9.47,18.974-24.813,18.974h-13.781v-22.098h10.258
				c5.244,0,6.104-1.403,6.104-5.7V98.938h28.497c1.565,0,3.444-1.171,3.444-3.515v-1.637h-48.304V72.935h70.927v22.958
				C629.308,111.745,620.54,121.038,605.278,121.038z"/>
			<path fill="#F08300" d="M692.48,120.49c-11.509,0-21.842-1.562-30.218-4.84v24.361h-24.035V71.295h24.035v16.243
				c0,8.591,19.339,9.995,30.218,9.995h9.785v22.957H692.48z M685.903,80.196v-8.901h19.023v8.901H685.903z M685.903,91.912v-8.827
				h19.023v8.827H685.903z"/>
			<path fill="#F08300" d="M711.338,140.95v-24.439c5.793-1.172,7.593-4.607,7.593-11.094V71.922h22.313v32.952
				C741.244,126.269,731.458,138.687,711.338,140.95z M776.238,92.615v12.802c0,6.486,2.032,10.076,7.591,11.094v24.439
				c-20.039-2.264-29.901-14.682-29.901-36.076V71.922h30.605v8.899h-16.204v3.045h16.204v8.749H776.238z"/>
			<path fill="#F08300" d="M857.288,94.488c-7.048,0-10.646,1.171-13.543,2.575v44.119h-22.858v-31.469l-2.818,1.562
				c-4.074,2.264-11.116,4.528-22.862,4.528h-4.226V92.926h5.168c6.418,0,8.297-1.092,13.074-3.593l26.146-13.743
				c5.481-2.89,9.709-3.983,17.381-3.983h11.428v22.882H857.288z"/>
			<path fill="#F08300" d="M940.104,92.847v6.56c0,25.849-10.1,40.451-40.235,40.451h-19.574v-22.254h19.495
				c14.718,0,16.908-3.125,17.062-15.306h-19.021v12.414h-23.016v-12.414h-4.304v-22.49h4.304v-7.653h23.016v7.653h19.021v-7.653
				h27.088v8.823h-17.299v2.968h17.299v8.901H940.104z"/>
			<path fill="#F08300" d="M951.461,116.743V93.471h67.091v23.272H951.461z"/>
			<path fill="#F08300" d="M1027.118,135.72v-23.351h23.098v23.351H1027.118z"/>
			<path fill="#F08300" d="M1077.95,136.11c-16.595,0-21.29-7.42-21.29-20.069v-6.872c0-12.495,5.086-20.147,21.216-20.147h35.775
				v20.771h-31.938c-2.428,0-3.054,0.781-3.054,1.873v1.875c0,1.329,1.017,1.874,3.128,1.874h31.864v20.696H1077.95z"/>
			<path fill="#F08300" d="M1157.886,136.501h-17.613c-14.404,0-20.665-6.717-20.665-19.21v-9.683
				c0-12.26,6.419-19.057,20.665-19.057h17.613c14.639,0,20.279,7.577,20.279,18.818v10.312
				C1178.165,129.002,1172.524,136.501,1157.886,136.501z M1157.028,111.513c0-1.487-0.863-2.97-3.133-2.97h-9.865
				c-2.426,0-3.207,1.562-3.207,2.97v2.027c0,1.799,0.545,3.045,3.207,3.045h9.865c2.584,0,3.133-1.716,3.133-3.045V111.513z"/>
			<path fill="#F08300" d="M1228.836,136.11v-23.816c0-2.344-0.784-3.36-3.914-3.36v27.177h-16.202v-27.177
				c-2.348,0.158-3.994,1.172-3.994,3.36v23.816h-20.744v-30.847c0-9.841,7.357-16.321,18.788-16.321h28.104
				c11.354,0,18.788,6.48,18.788,16.321v30.847H1228.836z"/>
		</g>
	</g>
</g>
</svg>
